<svg xmlns="http://www.w3.org/2000/svg" viewBox="0 0 512 512"><path d="M370.759 238.345a8.842 8.842 0 0 1-6.643-3.012l-54.987-62.845-37.522 45.026a8.825 8.825 0 0 1-12.431 1.129 8.825 8.825 0 0 1-1.129-12.431l44.138-52.966a8.82 8.82 0 0 1 6.673-3.177c2.81-.116 5.052 1.069 6.75 3.012l52.836 60.384 47.263-102.406c2.047-4.431 7.288-6.354 11.715-4.319a8.833 8.833 0 0 1 4.319 11.715l-52.966 114.759a8.83 8.83 0 0 1-6.759 5.038 8.42 8.42 0 0 1-1.257.093z" fill="#8f96ac"/><path fill="#d7deed" d="M222.63 266.779l22.584 22.584-57.379 57.379-22.584-22.584z"/><path d="M202.44 286.975a186.445 186.445 0 0 0 22.584 22.585l20.2-20.2-22.584-22.585-20.2 20.2z" fill="#c7cfe2"/><path d="M344.276 0c-92.631 0-167.724 75.093-167.724 167.724s75.093 167.724 167.724 167.724S512 260.355 512 167.724 436.907 0 344.276 0zm0 308.966c-78.005 0-141.241-63.236-141.241-141.241 0-78.006 63.236-141.241 141.241-141.241 78.006 0 141.241 63.235 141.241 141.241.001 78.004-63.235 141.241-141.241 141.241z" fill="#d7deed"/><path d="M23.9 506.83L5.172 488.106c-6.895-6.894-6.897-18.074-.001-24.97L154.17 314.137c6.894-6.894 18.072-6.894 24.967-.001l18.728 18.724c6.895 6.894 6.897 18.074.001 24.97L48.867 506.829c-6.894 6.895-18.072 6.895-24.967.001z" fill="#707487"/><path d="M22.826 480.791l148.999-148.999c6.894-6.894 18.071-6.895 24.967-.001l1.092 1.091s-.011-.015-.019-.022l-18.728-18.724c-6.895-6.893-18.072-6.893-24.967.001l-148.999 149c-6.895 6.895-6.895 18.074.001 24.969l17.641 17.638c-6.88-6.896-6.878-18.063.013-24.953z" fill="#5b5d6e"/><path d="M186.987 368.708l10.878-10.878c6.895-6.895 6.894-18.074-.001-24.969l-18.728-18.724c-6.895-6.893-18.072-6.893-24.967.001l-10.876 10.877 43.694 43.693z" fill="#c7cfe2"/><path d="M160.947 342.669l10.877-10.877c6.894-6.894 18.071-6.895 24.967-.001l1.09 1.09c-.007-.007-.01-.014-.017-.021l-18.728-18.724c-6.895-6.893-18.072-6.893-24.967.001l-10.876 10.877 17.654 17.655z" fill="#afb9d2" opacity=".97"/><circle cx="264.828" cy="211.862" r="17.655" fill="#ff6464"/><circle cx="308.966" cy="158.897" r="17.655" fill="#ffd782"/><circle cx="370.759" cy="229.517" r="17.655" fill="#c3e678"/><circle cx="423.724" cy="114.759" r="17.655" fill="#00d2ff"/></svg>